<svg width="40" height="43" viewBox="0 0 40 43" fill="none" xmlns="http://www.w3.org/2000/svg">
    <path d="M34.8501 13.8401L24.5201 4.91003C23.2681 3.83301 21.6715 3.24072 20.0201 3.24072C18.3686 3.24072 16.772 3.83301 15.5201 4.91003L5.19006 13.8401C4.44006 14.4896 3.83848 15.2927 3.42612 16.1951C3.01375 17.0974 2.80022 18.0779 2.80005 19.0701V34.8101C2.80005 35.4925 2.93463 36.1682 3.19608 36.7985C3.45752 37.4289 3.8407 38.0014 4.3237 38.4835C4.8067 38.9655 5.38003 39.3476 6.01086 39.6078C6.6417 39.8681 7.31766 40.0014 8.00006 40.0001H14.9301V28.6201C14.9301 27.2621 15.4695 25.9599 16.4297 24.9997C17.3899 24.0395 18.6921 23.5001 20.05 23.5001C21.408 23.5001 22.7103 24.0395 23.6704 24.9997C24.6306 25.9599 25.1701 27.2621 25.1701 28.6201V40.0001H32.7101C33.9247 40.0001 35.0897 39.5175 35.9486 38.6586C36.8075 37.7997 37.2901 36.6348 37.2901 35.4201V19.0701C37.2837 18.0741 37.0624 17.0912 36.6413 16.1885C36.2202 15.2859 35.6092 14.4849 34.8501 13.8401V13.8401Z" stroke="#3A4651" stroke-width="5" stroke-linecap="round" stroke-linejoin="round"/>
</svg>
