<svg width="37" height="45" viewBox="0 0 37 45" fill="none" xmlns="http://www.w3.org/2000/svg">
    <path d="M10.51 10.66C10.51 8.62848 11.317 6.68006 12.7536 5.24353C14.1901 3.807 16.1385 3 18.17 3C20.2016 3 22.1499 3.807 23.5864 5.24353C25.023 6.68006 25.83 8.62848 25.83 10.66C25.83 14.89 22.4 19.5 18.17 19.5C13.94 19.5 10.51 14.89 10.51 10.66Z" stroke="#3A4651" stroke-width="5" stroke-miterlimit="10"/>
    <path d="M18.17 42.5C23.8877 42.505 29.3814 40.2768 33.48 36.29C32.36 30.75 25.94 26.5 18.17 26.5C10.4 26.5 3.96999 30.75 2.85999 36.29C6.95744 40.2786 12.4518 42.5071 18.17 42.5V42.5Z" stroke="#3A4651" stroke-width="5" stroke-miterlimit="10"/>
</svg>
